<?xml version="1.0" encoding="UTF-8" standalone="no"?>
<!-- Generator: Adobe Illustrator 22.0.1, SVG Export Plug-In . SVG Version: 6.00 Build 0)  -->

<svg
   xmlns:dc="http://purl.org/dc/elements/1.1/"
   xmlns:cc="http://creativecommons.org/ns#"
   xmlns:rdf="http://www.w3.org/1999/02/22-rdf-syntax-ns#"
   xmlns:svg="http://www.w3.org/2000/svg"
   xmlns="http://www.w3.org/2000/svg"
   xmlns:sodipodi="http://sodipodi.sourceforge.net/DTD/sodipodi-0.dtd"
   xmlns:inkscape="http://www.inkscape.org/namespaces/inkscape"
   version="1.1"
   id="Livello_1"
   x="0px"
   y="0px"
   viewBox="0 0 1000 450"
   xml:space="preserve"
   sodipodi:docname="logotype.svg"
   width="1000"
   height="450"
   inkscape:version="0.92.4 5da689c313, 2019-01-14"><metadata
   id="metadata73"><rdf:RDF><cc:Work
       rdf:about=""><dc:format>image/svg+xml</dc:format><dc:type
         rdf:resource="http://purl.org/dc/dcmitype/StillImage" /><dc:title></dc:title></cc:Work></rdf:RDF></metadata><defs
   id="defs71" /><sodipodi:namedview
   pagecolor="#ffffff"
   bordercolor="#666666"
   borderopacity="1"
   objecttolerance="10"
   gridtolerance="10"
   guidetolerance="10"
   inkscape:pageopacity="0"
   inkscape:pageshadow="2"
   inkscape:window-width="1920"
   inkscape:window-height="1025"
   id="namedview69"
   showgrid="false"
   units="px"
   inkscape:zoom="0.6675088"
   inkscape:cx="532.72533"
   inkscape:cy="404.22628"
   inkscape:window-x="0"
   inkscape:window-y="30"
   inkscape:window-maximized="1"
   inkscape:current-layer="Livello_1" />
<style
   type="text/css"
   id="style2">
	.st0{fill:#174853;}
</style>
<g
   id="g66"
   transform="matrix(0.99442138,0,0,0.99442138,2.8136351,-275.70458)">
	<g
   id="g56">
		<path
   d="m 462.1,393.3 4.9,-11 c 5.3,3.9 13.2,6.6 20.8,6.6 8.6,0 12.1,-2.9 12.1,-6.7 0,-11.8 -36.6,-3.7 -36.6,-27.1 0,-10.7 8.6,-19.6 26.5,-19.6 7.9,0 16,1.9 21.9,5.6 l -4.5,11.1 c -5.8,-3.3 -11.9,-4.9 -17.5,-4.9 -8.6,0 -12,3.2 -12,7.2 0,11.6 36.6,3.6 36.6,26.7 0,10.5 -8.7,19.5 -26.7,19.5 -9.8,-0.1 -19.9,-3.1 -25.5,-7.4 z"
   id="path4"
   inkscape:connector-curvature="0" />
		<path
   d="m 525,368 c 0,-19 14.6,-32.6 34.2,-32.6 10.9,0 20,4 25.9,11.2 l -9.4,8.6 c -4.2,-4.9 -9.5,-7.4 -15.8,-7.4 -11.8,0 -20.2,8.3 -20.2,20.2 0,11.9 8.4,20.2 20.2,20.2 6.3,0 11.6,-2.5 15.8,-7.5 l 9.4,8.6 c -5.9,7.3 -15,11.2 -26,11.2 C 539.6,400.6 525,387 525,368 Z"
   id="path6"
   inkscape:connector-curvature="0" />
		<path
   d="m 594.2,368 c 0,-18.7 14.6,-32.6 34.5,-32.6 19.8,0 34.5,13.8 34.5,32.6 0,18.8 -14.7,32.6 -34.5,32.6 -20,0 -34.5,-13.9 -34.5,-32.6 z m 54.1,0 c 0,-12 -8.5,-20.2 -19.7,-20.2 -11.3,0 -19.7,8.2 -19.7,20.2 0,12 8.5,20.2 19.7,20.2 11.3,0 19.7,-8.2 19.7,-20.2 z"
   id="path8"
   inkscape:connector-curvature="0" />
		<path
   d="m 690.7,348.4 h -20.2 v -11.9 h 54.9 v 11.9 h -20.2 v 51.1 h -14.6 v -51.1 z"
   id="path10"
   inkscape:connector-curvature="0" />
		<path
   d="m 751.7,348.4 h -20.2 v -11.9 h 54.9 v 11.9 h -20.2 v 51.1 h -14.6 v -51.1 z"
   id="path12"
   inkscape:connector-curvature="0" />
		<path
   d="m 798.8,336.5 h 14.6 v 63 h -14.6 z"
   id="path14"
   inkscape:connector-curvature="0" />
		<path
   d="m 827.9,393.3 5,-11 c 5.3,3.9 13.2,6.6 20.8,6.6 8.6,0 12.1,-2.9 12.1,-6.7 0,-11.8 -36.6,-3.7 -36.6,-27.1 0,-10.7 8.6,-19.6 26.5,-19.6 7.9,0 16,1.9 21.9,5.6 l -4.5,11.1 c -5.8,-3.3 -11.9,-4.9 -17.5,-4.9 -8.6,0 -12,3.2 -12,7.2 0,11.6 36.6,3.6 36.6,26.7 0,10.5 -8.7,19.5 -26.7,19.5 -10,-0.1 -20,-3.1 -25.6,-7.4 z"
   id="path16"
   inkscape:connector-curvature="0" />
		<path
   d="m 952.5,336.5 v 63 h -14.6 v -25.8 h -28.6 v 25.8 h -14.6 v -63 h 14.6 v 24.8 h 28.6 v -24.8 z"
   id="path18"
   inkscape:connector-curvature="0" />
		<path
   d="m 497.3,465.2 v 22.3 H 482.7 V 465 l -24.4,-40.5 h 15.5 l 16.8,28 16.8,-28 h 14.3 z"
   id="path20"
   inkscape:connector-curvature="0" />
		<path
   d="m 525.8,456 c 0,-18.7 14.6,-32.6 34.5,-32.6 19.8,0 34.5,13.8 34.5,32.6 0,18.8 -14.7,32.6 -34.5,32.6 -20,0 -34.5,-13.9 -34.5,-32.6 z m 54.1,0 c 0,-12 -8.5,-20.2 -19.7,-20.2 -11.3,0 -19.7,8.2 -19.7,20.2 0,12 8.5,20.2 19.7,20.2 11.3,0 19.7,-8.2 19.7,-20.2 z"
   id="path22"
   inkscape:connector-curvature="0" />
		<path
   d="m 609.6,459.8 v -35.3 h 14.6 v 34.7 c 0,12 5.2,16.9 14,16.9 8.9,0 14,-5 14,-16.9 v -34.7 h 14.4 v 35.3 c 0,18.5 -10.6,28.8 -28.5,28.8 -17.8,0 -28.5,-10.3 -28.5,-28.8 z"
   id="path24"
   inkscape:connector-curvature="0" />
		<path
   d="m 697.6,436.4 h -20.2 v -11.9 h 54.9 v 11.9 h -20.2 v 51.1 h -14.6 v -51.1 z"
   id="path26"
   inkscape:connector-curvature="0" />
		<path
   d="m 802.4,424.5 v 63 h -14.6 v -25.8 h -28.6 v 25.8 h -14.6 v -63 h 14.6 v 24.8 h 28.6 v -24.8 z"
   id="path28"
   inkscape:connector-curvature="0" />
		<path
   d="m 463.1,544 c 0,-19 14.6,-32.6 34.2,-32.6 10.9,0 20,4 25.9,11.2 l -9.4,8.6 c -4.2,-4.9 -9.5,-7.4 -15.8,-7.4 -11.8,0 -20.2,8.3 -20.2,20.2 0,11.9 8.4,20.2 20.2,20.2 6.3,0 11.6,-2.5 15.8,-7.5 l 9.4,8.6 c -5.9,7.3 -15,11.3 -26,11.3 -19.5,0 -34.1,-13.6 -34.1,-32.6 z"
   id="path30"
   inkscape:connector-curvature="0" />
		<path
   d="m 537.5,512.5 h 14.6 v 51.1 h 31.6 v 11.9 h -46.2 z"
   id="path32"
   inkscape:connector-curvature="0" />
		<path
   d="M 596.4,512.5 H 611 v 63 h -14.6 z"
   id="path34"
   inkscape:connector-curvature="0" />
		<path
   d="m 687.7,575.5 -0.1,-37.8 -18.5,31.1 h -6.6 l -18.4,-30.3 v 37 h -13.7 v -63 h 12.1 l 23.6,39.1 23.2,-39.1 h 12 l 0.2,63 z"
   id="path36"
   inkscape:connector-curvature="0" />
		<path
   d="m 762.4,562 h -29.2 l -5.6,13.5 h -14.9 l 28.1,-63 h 14.4 l 28.2,63 h -15.3 z m -4.6,-11.1 -10,-24.1 -10,24.1 z"
   id="path38"
   inkscape:connector-curvature="0" />
		<path
   d="M 804.2,524.4 H 784 v -11.9 h 54.9 v 11.9 h -20.2 v 51.1 h -14.6 v -51.1 z"
   id="path40"
   inkscape:connector-curvature="0" />
		<path
   d="m 900.1,563.8 v 11.7 h -48.8 v -63 h 47.6 v 11.7 h -33.1 v 13.7 H 895 v 11.3 h -29.2 v 14.6 z"
   id="path42"
   inkscape:connector-curvature="0" />
		<path
   d="m 462.1,657.3 4.9,-11 c 5.3,3.9 13.2,6.6 20.8,6.6 8.6,0 12.1,-2.9 12.1,-6.8 0,-11.8 -36.6,-3.7 -36.6,-27.1 0,-10.7 8.6,-19.6 26.5,-19.6 7.9,0 16,1.9 21.9,5.6 l -4.5,11.1 c -5.8,-3.3 -11.9,-5 -17.5,-5 -8.6,0 -12,3.2 -12,7.2 0,11.6 36.6,3.6 36.6,26.7 0,10.5 -8.7,19.5 -26.7,19.5 -9.8,0.1 -19.9,-2.9 -25.5,-7.2 z"
   id="path44"
   inkscape:connector-curvature="0" />
		<path
   d="M 541.1,612.4 H 521 v -11.9 h 54.9 v 11.9 h -20.2 v 51.1 h -14.6 z"
   id="path46"
   inkscape:connector-curvature="0" />
		<path
   d="M 628.4,663.5 616.2,646 h -0.7 -12.7 v 17.5 h -14.6 v -63 h 27.3 c 16.8,0 27.4,8.7 27.4,22.9 0,9.5 -4.8,16.4 -13,19.9 l 14.1,20.2 z m -13.7,-51.1 h -11.9 v 22 h 11.9 c 8.9,0 13.4,-4.1 13.4,-11 0,-7 -4.5,-11 -13.4,-11 z"
   id="path48"
   inkscape:connector-curvature="0" />
		<path
   d="m 658.9,600.5 h 14.6 v 63 h -14.6 z"
   id="path50"
   inkscape:connector-curvature="0" />
		<path
   d="m 715.8,638.8 -8.5,8.8 v 15.9 h -14.5 v -63 h 14.5 v 29.4 l 27.9,-29.4 h 16.2 l -26.1,28.1 27.6,34.9 h -17 z"
   id="path52"
   inkscape:connector-curvature="0" />
		<path
   d="m 812.8,651.8 v 11.7 H 764 v -63 h 47.6 v 11.7 h -33.1 v 13.7 h 29.2 v 11.3 h -29.2 v 14.6 z"
   id="path54"
   inkscape:connector-curvature="0" />
	</g>
	<g
   id="g64">
		<path
   d="m 242.3,636.5 c -7.5,-5.3 -8.6,-14.9 -8.1,-23.4 0.2,-4.2 0.7,-8.3 0.8,-12.5 0.2,0 0.5,0 0.7,0 31.8,-0.5 60.6,-18.1 77.5,-43.8 l 14.7,8.9 3.1,-5.1 -14.7,-8.8 c 4.9,-8.6 8.5,-17.9 10.6,-27.7 l 18.6,5 1.6,-5.8 L 328,518 c 0.7,-4.7 1,-9.5 0.9,-14.4 0.1,-3.9 -0.1,-7.8 -0.5,-11.6 l 15.9,-4.4 -1.6,-5.8 -15.1,4.2 c -1.3,-7.9 -3.7,-15.5 -6.8,-22.6 l 15.7,-10.1 -3.2,-5 -15,9.7 c -6.4,-12.3 -15.4,-23.1 -26.4,-31.7 L 342,368.4 c 2.1,-3.1 -0.1,-7.3 -3.8,-7.3 h -14.4 c -1.7,0 -3.3,0.9 -4.1,2.5 l -35.8,57.1 c -2.6,-1.6 -5.2,-3.1 -8,-4.5 l 38,-68.5 c 1.5,-3.1 -0.7,-6.7 -4.2,-6.7 h -15.2 c -2,0 -3.8,1.3 -4.4,3.2 l -25,67.3 c -2.4,-0.8 -4.8,-1.6 -7.3,-2.3 L 278,336.8 c 0.8,-3 -1.4,-5.9 -4.5,-5.9 h -15.7 c -2.4,0 -4.4,1.8 -4.6,4.2 l -7,71.7 c -3.5,-0.5 -7.1,-0.8 -10.7,-0.9 l 7.6,-80.3 c 0.3,-2.7 -1.8,-5.1 -4.6,-5.1 h -15.9 c -2.7,0 -4.8,2.3 -4.6,5 l 5.3,80.8 c -3.3,0.3 -6.6,0.7 -9.8,1.3 l -7.2,-72.9 c -0.2,-2.4 -2.2,-4.2 -4.6,-4.2 H 186 c -3.1,0 -5.3,2.9 -4.5,5.9 l 20.7,74.1 c -2.4,0.8 -4.7,1.6 -7,2.5 l -25.7,-69.3 c -0.6,-1.9 -2.4,-3.2 -4.4,-3.2 h -15.2 c -3.4,0 -5.7,3.6 -4.2,6.7 l 39.2,70.7 c -2.6,1.4 -5.2,3 -7.7,4.6 L 139.8,363 c -0.8,-1.5 -2.4,-2.5 -4.1,-2.5 h -14.4 c -3.7,0 -5.9,4.2 -3.8,7.3 l 52.1,60.3 c -10.1,8.2 -18.5,18.4 -24.5,29.9 l -15.3,-9.8 -3.2,5 15.9,10.2 c -3.2,7.1 -5.6,14.7 -6.9,22.5 l -15.2,-4.2 -1.6,5.8 15.9,4.4 c -0.4,3.9 -0.6,7.8 -0.6,11.9 0.1,4.8 0.5,9.5 1.2,14.1 l -19.4,5.2 1.6,5.8 19,-5.1 c 2.2,10.5 6.1,20.2 11.3,29 l -0.8,-1.3 -14.9,8.9 3.1,5.1 14.9,-8.9 -1.6,-2.6 c 15.2,25 41.5,42.2 73,45.8 0,6.1 -1.2,12.4 -1.3,18.5 -0.2,7.2 0.2,14.5 1.3,21.7 2.1,13.9 7.3,27 16.4,37.7 1,1.1 3,-0.1 2.5,-1.5 -4.4,-11.6 -9.8,-28 2.1,-37.2 0.7,-0.7 0.8,-1.8 -0.2,-2.5 z m -97,-124.6 c -2.1,-20.6 1.7,-35.7 11.7,-52.3 -0.4,5.4 1.9,8.1 4.7,10.8 5.2,4.8 6.8,12 10.7,17.7 1.5,2.2 -0.4,4.8 -1.8,7 -6.2,9.4 -5.9,16 1.6,23.8 5.1,5.3 5.9,11.5 5.4,18.4 -0.5,6.7 -0.7,13.5 -0.5,20.2 0.1,8 4,14.4 9.7,19.7 -25.2,-14.6 -38.6,-36.8 -41.5,-65.3 z m 41.8,65.6 c 3.3,-1.1 3.1,-3.7 2.5,-6.2 -1.8,-6.7 1.3,-11.4 6.5,-14.8 4,-2.7 7.2,-5.8 9.6,-10 0.7,-1.2 1.5,-2.8 2.6,-3.2 9.6,-3.4 12.8,-12.1 17.4,-19.8 4.2,-6.9 4,-10.8 -3.2,-13.8 -5.4,-2.2 -8.3,-6 -11.3,-10.6 -6,-9.4 -16.1,-13.6 -25.9,-17.9 -0.7,-0.3 -1.8,0 -2.7,0.2 -9.1,2.5 -13,-0.9 -10.6,-10.1 1,-3.8 2.2,-6.1 -3.1,-6.5 -1.9,-0.2 -2.6,-2 -2.1,-3.8 1.2,-4.8 4.7,-7.3 9.3,-8.5 4,-1 6.8,0.5 8.1,4.5 0.4,1.3 0.8,2.9 2.5,3 0.6,0 1.7,-1 1.9,-1.7 2.7,-12 13.4,-12.3 22.2,-14.6 4.3,-1.1 8.9,-2.1 13.4,-2.8 6.8,-0.9 3.3,-7.6 3.1,-11.6 -0.2,-3 -3.1,-5.2 -6.8,-3.4 -2.7,1.3 -5.7,1.9 -7.9,4.2 -0.8,0.8 -2.2,1.2 -3.1,0.1 -1.2,-1.3 -0.4,-2.5 0.5,-3.7 3.2,-4.1 7.8,-3.6 12.1,-3.7 2.6,-0.1 4.8,2 7.9,0.3 2.3,-1.3 2,2.3 2.6,3.8 2.9,7.3 4.4,7.6 10,2.4 3.2,-3 6.7,-5.7 10.1,-8.4 2.6,-2.1 5.4,-0.8 7.9,0.2 3.5,1.4 6.8,3 10.2,4.5 2.8,1.2 4.5,2.4 3.2,6.2 -1.5,4.5 1.8,7.2 5.3,9.5 2.6,1.7 6,3.1 5.3,7.3 -0.7,4 -3.8,4.8 -7,5.8 -7,2.3 -6.6,5.3 1.7,12.9 -5.1,1.8 -8.2,5.8 -12.6,8.3 -2.8,1.6 -4,4.3 -4.3,7.6 -0.2,2.5 -0.5,5.1 -1.1,7.6 -3.5,13.8 4.6,24.1 19.1,24.2 11,0.1 11.8,1 10.3,11.9 -0.2,1.6 -0.4,3.4 0.1,4.8 2,5.5 0.4,9.9 -3.2,14.1 -2.4,2.7 -2.9,6.2 -2.5,9.8 1,9.9 -6,21.8 -15.2,26.1 -24.6,11.7 -49.4,11.5 -74.4,0.9 -3.2,-1.3 -6.1,-2.8 -8.4,-5.1 z"
   id="path58"
   inkscape:connector-curvature="0" />
		<path
   d="m 96.5,595.7 c 22.7,35.1 61.1,64.4 101.4,75.4 -44.5,-35.9 -35.9,-62.9 -53.6,-91 1.4,8.4 2,16.9 1.6,25.4 -40.6,-33.3 -67.7,-77.4 -74.8,-129.4 0.1,-0.3 0.1,-0.6 0.2,-0.9 -12,26.9 -19.7,55.7 -22.9,85 -1.2,10.7 -1.7,21.7 1.2,32.1 5.7,20.6 23.4,35.3 41.2,47 -10.8,0.1 -21.5,0.3 -32.3,0.4 C 92.7,670 140.4,684.3 185.6,678 146.1,664.5 109.5,632.9 89.1,596.4 69,560.6 62.4,517.4 70.9,477.3 c -6.1,40.8 3.2,83.8 25.6,118.4 z"
   id="path60"
   inkscape:connector-curvature="0" />
		<path
   d="m 407.8,592.3 c 2.9,-10.4 2.3,-21.4 1.2,-32.1 -3.2,-29.3 -10.9,-58.1 -22.9,-85 0.1,0.3 0.1,0.6 0.2,0.9 -7.1,52 -34.2,96.1 -74.8,129.4 -0.3,-8.5 0.2,-17 1.6,-25.4 -17.6,28 -9.1,55.1 -53.6,91 40.3,-11 78.8,-40.3 101.4,-75.4 22.4,-34.7 31.6,-77.6 25.6,-118.4 8.4,40.2 1.8,83.3 -18.2,119.1 -20.4,36.4 -57,68 -96.5,81.6 45.2,6.4 93,-8 127.1,-38.3 -10.8,-0.1 -21.5,-0.3 -32.3,-0.4 17.8,-11.7 35.5,-26.4 41.2,-47 z"
   id="path62"
   inkscape:connector-curvature="0" />
	</g>
</g>
</svg>