<?xml version="1.0" encoding="UTF-8" standalone="no"?>
<!-- Created with Inkscape (http://www.inkscape.org/) -->

<svg
   xmlns:dc="http://purl.org/dc/elements/1.1/"
   xmlns:cc="http://creativecommons.org/ns#"
   xmlns:rdf="http://www.w3.org/1999/02/22-rdf-syntax-ns#"
   xmlns:svg="http://www.w3.org/2000/svg"
   xmlns="http://www.w3.org/2000/svg"
   xmlns:sodipodi="http://sodipodi.sourceforge.net/DTD/sodipodi-0.dtd"
   xmlns:inkscape="http://www.inkscape.org/namespaces/inkscape"
   width="20mm"
   height="10mm"
   viewBox="0 0 20 10"
   version="1.1"
   id="svg8"
   inkscape:version="0.92.4 5da689c313, 2019-01-14"
   sodipodi:docname="donate.svg">
  <defs
     id="defs2" />
  <sodipodi:namedview
     id="base"
     pagecolor="#ffffff"
     bordercolor="#666666"
     borderopacity="1.0"
     inkscape:pageopacity="0.0"
     inkscape:pageshadow="2"
     inkscape:zoom="11.2"
     inkscape:cx="24.805784"
     inkscape:cy="12.295135"
     inkscape:document-units="mm"
     inkscape:current-layer="layer1"
     showgrid="false"
     inkscape:window-width="1920"
     inkscape:window-height="1025"
     inkscape:window-x="0"
     inkscape:window-y="30"
     inkscape:window-maximized="1" />
  <metadata
     id="metadata5">
    <rdf:RDF>
      <cc:Work
         rdf:about="">
        <dc:format>image/svg+xml</dc:format>
        <dc:type
           rdf:resource="http://purl.org/dc/dcmitype/StillImage" />
        <dc:title />
      </cc:Work>
    </rdf:RDF>
  </metadata>
  <g
     inkscape:label="Layer 1"
     inkscape:groupmode="layer"
     id="layer1"
     transform="translate(0,-287)">
    <path
       style="color:#000000;font-style:normal;font-variant:normal;font-weight:normal;font-stretch:normal;font-size:medium;line-height:normal;font-family:sans-serif;font-variant-ligatures:normal;font-variant-position:normal;font-variant-caps:normal;font-variant-numeric:normal;font-variant-alternates:normal;font-feature-settings:normal;text-indent:0;text-align:start;text-decoration:none;text-decoration-line:none;text-decoration-style:solid;text-decoration-color:#000000;letter-spacing:normal;word-spacing:normal;text-transform:none;writing-mode:lr-tb;direction:ltr;text-orientation:mixed;dominant-baseline:auto;baseline-shift:baseline;text-anchor:start;white-space:normal;shape-padding:0;clip-rule:nonzero;display:inline;overflow:visible;visibility:visible;opacity:1;isolation:auto;mix-blend-mode:normal;color-interpolation:sRGB;color-interpolation-filters:linearRGB;solid-color:#000000;solid-opacity:1;vector-effect:none;fill:#23b25c;fill-opacity:1;fill-rule:nonzero;stroke:none;stroke-width:0.5987547;stroke-linecap:square;stroke-linejoin:miter;stroke-miterlimit:4;stroke-dasharray:none;stroke-dashoffset:0;stroke-opacity:1;color-rendering:auto;image-rendering:auto;shape-rendering:auto;text-rendering:auto;enable-background:accumulate"
       d="m 4.9003906,287.91797 c -2.2299372,0 -4.05078122,1.81889 -4.05078122,4.04883 0,2.22993 1.82084402,4.04882 4.05078122,4.04882 H 14.900391 c 2.229937,0 4.048828,-1.81889 4.048828,-4.04882 0,-2.22994 -1.818891,-4.04883 -4.048828,-4.04883 z m 0,0.59765 H 14.900391 c 1.905106,0 3.449218,1.54607 3.449218,3.45118 0,1.9051 -1.544112,3.45117 -3.449218,3.45117 H 4.9003906 c -1.9051062,0 -3.4511718,-1.54607 -3.4511718,-3.45117 0,-1.90511 1.5460656,-3.45118 3.4511718,-3.45118 z"
       id="path1372"
       inkscape:connector-curvature="0" />
    <g
       aria-label="Donate"
       style="font-style:normal;font-variant:normal;font-weight:normal;font-stretch:normal;font-size:2.82222223px;line-height:1.25;font-family:'Open Sans';-inkscape-font-specification:'Open Sans';letter-spacing:0px;word-spacing:0px;fill:#23b25c;fill-opacity:1;stroke:none;stroke-width:0.26458332"
       id="text1368">
      <path
         d="m 5.7962777,292.5632 c 0,0 -0.00564,-0.46285 -0.00564,-0.55316 0,-0.0903 0.00564,-0.55033 0.00564,-0.55033 l 0.00282,-0.0734 c 0.3160889,0 0.3922889,0.381 0.3922889,0.58985 0,0.52211 -0.2935111,0.65757 -0.3922889,0.65757 z m -0.4797778,0.40922 c 0,0.0988 0.093133,0.0988 0.093133,0.0988 h 0.4092222 c 0.5983111,0 0.8325555,-0.53058 0.8325555,-1.09502 0,-0.47132 -0.1524,-1.02729 -0.8325555,-1.02729 H 5.406811 c 0,0 -0.090311,-0.006 -0.090311,0.096 0,0.0564 0.011289,0.81562 0.011289,0.9652 0,0.1524 -0.011289,0.91722 -0.011289,0.96238 z"
         style="font-style:normal;font-variant:normal;font-weight:normal;font-stretch:normal;font-family:'FUCXED CAPS';-inkscape-font-specification:'FUCXED CAPS';stroke-width:0.26458332;fill:#23b25c;fill-opacity:1"
         id="path2050" />
      <path
         d="m 7.7407871,290.87833 c -0.5813777,0 -0.8043333,0.5588 -0.8043333,1.12042 0,0.56163 0.2229556,1.12325 0.8043333,1.12325 0.5842,0 0.8071556,-0.56162 0.8071556,-1.12325 0,-0.56162 -0.2229556,-1.12042 -0.8071556,-1.12042 z m 0,1.80622 c -0.1947333,0 -0.3076222,-0.29915 -0.3076222,-0.6858 0,-0.38382 0.1157111,-0.68297 0.3076222,-0.68297 0.1919111,0 0.3104445,0.29915 0.3104445,0.68297 0,0.38665 -0.1044222,0.6858 -0.3104445,0.6858 z"
         style="font-style:normal;font-variant:normal;font-weight:normal;font-stretch:normal;font-family:'FUCXED CAPS';-inkscape-font-specification:'FUCXED CAPS';stroke-width:0.26458332;fill:#23b25c;fill-opacity:1"
         id="path2052" />
      <path
         d="m 10.241273,290.99404 c 0,-0.0564 -0.05927,-0.0564 -0.05927,-0.0564 H 9.8292286 c 0,0 -0.056444,0 -0.056444,0.0564 0,0.0198 0.00282,0.43745 0.00282,0.53058 0,0.096 -0.00282,0.53058 -0.00282,0.53058 0,0 -0.1749778,-0.42334 -0.2144889,-0.53058 -0.039511,-0.10724 -0.1919111,-0.50518 -0.2032,-0.53058 -0.022578,-0.0564 -0.073378,-0.0564 -0.073378,-0.0564 H 8.8781397 c 0,0 -0.045155,0 -0.045155,0.0564 0,0.0282 0.00847,0.90029 0.00847,1.00471 0,0.10725 -0.00847,0.97931 -0.00847,1.00754 0,0.0536 0.053622,0.0536 0.053622,0.0536 h 0.3527778 c 0,0 0.062089,0 0.062089,-0.0536 0,-0.0254 -0.00282,-0.35278 -0.00282,-0.54187 0,-0.18909 0.00282,-0.54187 0.00282,-0.54187 0,0 0.2455333,0.61243 0.2173111,0.54187 -0.028222,-0.0706 0.1919111,0.51647 0.2003778,0.54187 0.022578,0.0536 0.090311,0.0536 0.090311,0.0536 h 0.3781779 c 0,0 0.05362,0 0.05362,-0.0536 0,-0.0282 -0.0056,-0.89747 -0.0056,-1.00754 0,-0.11006 0.0056,-0.97649 0.0056,-1.00471 z"
         style="font-style:normal;font-variant:normal;font-weight:normal;font-stretch:normal;font-family:'FUCXED CAPS';-inkscape-font-specification:'FUCXED CAPS';stroke-width:0.26458332;fill:#23b25c;fill-opacity:1"
         id="path2054" />
      <path
         d="m 12.070069,293.00064 c 0,0 -0.124178,-0.49106 -0.242712,-0.98213 -0.112888,-0.47413 -0.220133,-0.95109 -0.2286,-0.9906 -0.01976,-0.0762 -0.107244,-0.0734 -0.107244,-0.0734 h -0.386644 c 0,0 -0.09031,-0.003 -0.107245,0.0734 -0.0085,0.0395 -0.115711,0.51364 -0.2286,0.98778 -0.118533,0.49389 -0.242711,0.98495 -0.242711,0.98495 -0.01693,0.0819 0.0762,0.0762 0.0762,0.0762 h 0.369711 c 0.05645,0 0.06773,-0.0536 0.06773,-0.0536 l 0.04798,-0.27376 c 0.01129,-0.0423 0.04798,-0.0395 0.04798,-0.0395 h 0.324556 c 0,0 0.03669,-0.003 0.04798,0.0395 l 0.04798,0.27376 c 0,0 0.01129,0.0536 0.06773,0.0536 h 0.369712 c 0,0 0.09313,0.006 0.0762,-0.0762 z m -0.682978,-0.60395 h -0.1778 c 0,0 -0.05645,0.003 -0.04798,-0.0593 l 0.135467,-0.94544 c 0,0 0,-0.006 0,-0.006 0.0028,0 0.0028,0.006 0.0028,0.006 l 0.135467,0.94544 c 0.0085,0.0621 -0.04798,0.0593 -0.04798,0.0593 z"
         style="font-style:normal;font-variant:normal;font-weight:normal;font-stretch:normal;font-family:'FUCXED CAPS';-inkscape-font-specification:'FUCXED CAPS';stroke-width:0.26458332;fill:#23b25c;fill-opacity:1"
         id="path2056" />
      <path
         d="m 13.399332,290.9376 h -0.996244 c 0,0 -0.04798,-0.003 -0.04798,0.0564 v 0.34149 c 0,0.0536 0.0508,0.0536 0.0508,0.0536 h 0.234244 c 0,0 0.0254,-0.006 0.0254,0.0198 0,0.0113 0.0056,0.27658 0.0056,0.58984 0,0.44027 -0.0056,0.97649 -0.0056,1.00754 0,0.0536 0.05645,0.0536 0.05645,0.0536 h 0.375355 c 0,0 0.0508,0 0.0508,-0.0508 0,-0.15522 -0.0028,-0.62089 -0.0028,-1.01036 0,-0.31609 0.0028,-0.58137 0.0028,-0.58984 0,-0.0198 0.0254,-0.0198 0.0254,-0.0198 h 0.225778 c 0,0 0.06209,0.006 0.06209,-0.0536 v -0.34149 c 0,-0.0564 -0.06209,-0.0564 -0.06209,-0.0564 z"
         style="font-style:normal;font-variant:normal;font-weight:normal;font-stretch:normal;font-family:'FUCXED CAPS';-inkscape-font-specification:'FUCXED CAPS';stroke-width:0.26458332;fill:#23b25c;fill-opacity:1"
         id="path2058" />
      <path
         d="m 14.61006,292.61964 c -0.06491,0.003 -0.155222,0.003 -0.211666,0.003 -0.07056,0 -0.129823,0 -0.155223,0 -0.01693,0 -0.01693,-0.0169 -0.01693,-0.0169 v -0.36407 c 0,0 0,-0.0226 0.01693,-0.0226 0.01129,0 0.245534,0 0.349956,0 0.0508,0 0.04515,-0.0423 0.04515,-0.0423 v -0.35277 c 0,0 0.0056,-0.0423 -0.04515,-0.0423 -0.104422,0 -0.338667,-0.003 -0.349956,-0.003 -0.01693,0 -0.01693,-0.0226 -0.01693,-0.0226 v -0.36406 c 0,0 0,-0.0169 0.01693,-0.0169 0.0254,0 0.08467,0 0.155223,0 0.05644,0 0.146755,0 0.211666,0.003 0.0762,0.003 0.07338,-0.0508 0.07338,-0.0508 v -0.33866 c 0,0 -0.0028,-0.0508 -0.07338,-0.0508 h -0.784578 c -0.08467,0 -0.07902,0.0818 -0.07902,0.0818 l 0.01411,0.97931 -0.01411,0.97931 c 0,0 -0.0056,0.0818 0.07902,0.0818 h 0.784578 c 0.07056,0 0.07338,-0.048 0.07338,-0.048 v -0.33867 c 0,0 0.0028,-0.0564 -0.07338,-0.0536 z"
         style="font-style:normal;font-variant:normal;font-weight:normal;font-stretch:normal;font-family:'FUCXED CAPS';-inkscape-font-specification:'FUCXED CAPS';stroke-width:0.26458332;fill:#23b25c;fill-opacity:1"
         id="path2060" />
    </g>
    <path
       style="color:#000000;font-style:normal;font-variant:normal;font-weight:normal;font-stretch:normal;font-size:medium;line-height:normal;font-family:sans-serif;font-variant-ligatures:normal;font-variant-position:normal;font-variant-caps:normal;font-variant-numeric:normal;font-variant-alternates:normal;font-feature-settings:normal;text-indent:0;text-align:start;text-decoration:none;text-decoration-line:none;text-decoration-style:solid;text-decoration-color:#000000;letter-spacing:normal;word-spacing:normal;text-transform:none;writing-mode:lr-tb;direction:ltr;text-orientation:mixed;dominant-baseline:auto;baseline-shift:baseline;text-anchor:start;white-space:normal;shape-padding:0;clip-rule:nonzero;display:inline;overflow:visible;visibility:visible;opacity:1;isolation:auto;mix-blend-mode:normal;color-interpolation:sRGB;color-interpolation-filters:linearRGB;solid-color:#000000;solid-opacity:1;vector-effect:none;fill:none;fill-opacity:1;fill-rule:nonzero;stroke:none;stroke-width:0.59875476;stroke-linecap:square;stroke-linejoin:miter;stroke-miterlimit:4;stroke-dasharray:none;stroke-dashoffset:0;stroke-opacity:1;color-rendering:auto;image-rendering:auto;shape-rendering:auto;text-rendering:auto;enable-background:accumulate"
       d="m 15,288.84961 c 1.743931,0 3.150391,1.40646 3.150391,3.15039 0,1.74393 -1.40646,3.15039 -3.150391,3.15039 H 5 c -1.7439307,0 -3.1503906,-1.40646 -3.1503906,-3.15039 0,-1.74393 1.4064599,-3.15039 3.1503906,-3.15039 z"
       id="path1372-3"
       inkscape:connector-curvature="0"
       sodipodi:nodetypes="csccscc" />
  </g>
</svg>
