<?xml version="1.0" encoding="UTF-8" standalone="no"?>
<svg
   xmlns:dc="http://purl.org/dc/elements/1.1/"
   xmlns:cc="http://creativecommons.org/ns#"
   xmlns:rdf="http://www.w3.org/1999/02/22-rdf-syntax-ns#"
   xmlns:svg="http://www.w3.org/2000/svg"
   xmlns="http://www.w3.org/2000/svg"
   xmlns:sodipodi="http://sodipodi.sourceforge.net/DTD/sodipodi-0.dtd"
   xmlns:inkscape="http://www.inkscape.org/namespaces/inkscape"
   version="1.1"
   id="svg4730"
   viewBox="0 0 37.795274 37.795276"
   height="10mm"
   width="10mm"
   sodipodi:docname="facebook.svg"
   inkscape:version="0.92.4 5da689c313, 2019-01-14"
   inkscape:export-filename="/home/emil/SYCS/icons/facebook.png"
   inkscape:export-xdpi="254"
   inkscape:export-ydpi="254">
  <sodipodi:namedview
     pagecolor="#ffffff"
     bordercolor="#666666"
     borderopacity="1"
     objecttolerance="10"
     gridtolerance="10"
     guidetolerance="10"
     inkscape:pageopacity="0"
     inkscape:pageshadow="2"
     inkscape:window-width="1280"
     inkscape:window-height="969"
     id="namedview14"
     showgrid="false"
     units="mm"
     inkscape:zoom="15.999999"
     inkscape:cx="15.743033"
     inkscape:cy="18.470302"
     inkscape:window-x="1920"
     inkscape:window-y="30"
     inkscape:window-maximized="1"
     inkscape:current-layer="g4672"
     inkscape:object-paths="true"
     inkscape:snap-intersection-paths="true"
     inkscape:snap-smooth-nodes="true"
     inkscape:snap-midpoints="true" />
  <defs
     id="defs4732">
    <clipPath
       clipPathUnits="userSpaceOnUse"
       id="clipPath4674">
      <path
         d="M 0,500 H 1024 V 0 H 0 Z"
         id="path4676"
         inkscape:connector-curvature="0" />
    </clipPath>
  </defs>
  <metadata
     id="metadata4735">
    <rdf:RDF>
      <cc:Work
         rdf:about="">
        <dc:format>image/svg+xml</dc:format>
        <dc:type
           rdf:resource="http://purl.org/dc/dcmitype/StillImage" />
        <dc:title />
      </cc:Work>
    </rdf:RDF>
  </metadata>
  <g
     id="g4672"
     clip-path="url(#clipPath4674)"
     transform="matrix(1.1165523,0,0,-1.1165523,-136.95372,171.39869)">
    <g
       id="g4682"
       transform="matrix(0.09448819,0,0,0.09448819,144.37368,123.88834)"
       style="fill:#f0f0f0;fill-opacity:1;fill-rule:evenodd">
      <path
         style="fill:#f0f0f0;fill-opacity:1;fill-rule:evenodd;stroke:none"
         d="M 0,1.0583333e-4 V 103.355 h 34.693 l 5.194,40.28 H 0 c 0.44643931,11.80222 -1.1029238,23.81971 1.261377,35.4326 4.4954701,12.34391 19.483975,9.5534 30.023976,9.89871 3.684555,0.91087 11.875713,-2.68275 10.006647,3.77914 V 224.997 C 18.898615,226.66416 -7.1229865,230.6933 -25.47204,214.52664 -41.170374,201.19698 -42.213589,179.59278 -41.595,160.50687 V 143.635 h -34.781 v -40.28 h 34.781 V 1.0583333e-4 h -98.77207 c -24.75261,0 -44.67987,19.92714616667 -44.67987,44.67976416667 V 224.0045 c 0,24.75262 19.92726,44.67977 44.67987,44.67977 H 38.957461 c 24.752617,0 44.67987,-19.92715 44.67987,-44.67977 V 44.67987 c 0,-24.752618 -19.927253,-44.67976416667 -44.67987,-44.67976416667 z"
         id="path4684"
         inkscape:connector-curvature="0"
         sodipodi:nodetypes="cccccccccccccccccsssssscc" />
    </g>
  </g>
</svg>
