<?xml version="1.0" encoding="UTF-8" standalone="no"?>
<!-- Generator: Adobe Illustrator 20.0.0, SVG Export Plug-In . SVG Version: 6.00 Build 0)  -->

<svg
   xmlns:dc="http://purl.org/dc/elements/1.1/"
   xmlns:cc="http://creativecommons.org/ns#"
   xmlns:rdf="http://www.w3.org/1999/02/22-rdf-syntax-ns#"
   xmlns:svg="http://www.w3.org/2000/svg"
   xmlns="http://www.w3.org/2000/svg"
   xmlns:sodipodi="http://sodipodi.sourceforge.net/DTD/sodipodi-0.dtd"
   xmlns:inkscape="http://www.inkscape.org/namespaces/inkscape"
   version="1.1"
   x="0px"
   y="0px"
   viewBox="0 0 37.795272 37.795272"
   xml:space="preserve"
   id="svg10"
   sodipodi:docname="twitter.svg"
   width="10mm"
   height="10mm"
   inkscape:version="0.92.4 5da689c313, 2019-01-14"
   inkscape:export-filename="/home/emil/SYCS/icons/twitter.png"
   inkscape:export-xdpi="162.56"
   inkscape:export-ydpi="162.56"><metadata
   id="metadata16"><rdf:RDF><cc:Work
       rdf:about=""><dc:format>image/svg+xml</dc:format><dc:type
         rdf:resource="http://purl.org/dc/dcmitype/StillImage" /><dc:title /></cc:Work></rdf:RDF></metadata><defs
   id="defs14" /><sodipodi:namedview
   pagecolor="#ffffff"
   bordercolor="#666666"
   borderopacity="1"
   objecttolerance="10"
   gridtolerance="10"
   guidetolerance="10"
   inkscape:pageopacity="0"
   inkscape:pageshadow="2"
   inkscape:window-width="1280"
   inkscape:window-height="969"
   id="namedview12"
   showgrid="false"
   units="mm"
   inkscape:zoom="13.350176"
   inkscape:cx="15.767155"
   inkscape:cy="15.807178"
   inkscape:window-x="1920"
   inkscape:window-y="30"
   inkscape:window-maximized="1"
   inkscape:current-layer="svg10" />
<style
   type="text/css"
   id="style2">
	.st0{fill:#1DA1F2;}
	.st1{fill:#FFFFFF;}
</style>

<g
   id="Dark_Blue"
   transform="matrix(0.07086614,0,0,0.07086614,4.7244094,4.7244097)"
   style="fill:#000000;fill-opacity:1">
	
</g><g
   id="Logo__x2014__FIXED"
   transform="matrix(0.07086614,0,0,0.07086614,4.7244094,4.7244097)"
   style="fill:#f0f0f0;fill-opacity:1">
	<path
   id="path7"
   style="fill:#f0f0f0;fill-opacity:1"
   d="m 163.4,305.5 c 88.7,0 137.2,-73.5 137.2,-137.2 0,-2.1 0,-4.2 -0.1,-6.2 9.4,-6.8 17.6,-15.3 24.1,-25 -8.6,3.8 -17.9,6.4 -27.7,7.6 10,-6 17.6,-15.4 21.2,-26.7 -9.3,5.5 -19.6,9.5 -30.6,11.7 -8.8,-9.4 -21.3,-15.2 -35.2,-15.2 -26.6,0 -48.2,21.6 -48.2,48.2 0,3.8 0.4,7.5 1.3,11 -40.1,-2 -75.6,-21.2 -99.4,-50.4 -4.1,7.1 -6.5,15.4 -6.5,24.2 0,16.7 8.5,31.5 21.5,40.1 -7.9,-0.2 -15.3,-2.4 -21.8,-6 0,0.2 0,0.4 0,0.6 0,23.4 16.6,42.8 38.7,47.3 -4,1.1 -8.3,1.7 -12.7,1.7 -3.1,0 -6.1,-0.3 -9.1,-0.9 6.1,19.2 23.9,33.1 45,33.5 -16.5,12.9 -37.3,20.6 -59.9,20.6 -3.9,0 -7.7,-0.2 -11.5,-0.7 21.1,13.8 46.5,21.8 73.7,21.8 M 400,200 A 200,200 0 0 1 200,400 200,200 0 0 1 0,200 200,200 0 0 1 200,0 200,200 0 0 1 400,200 Z" />
</g>
</svg>